PathFileType	4	(X/Y/Z)	C:/Users/beibeiliu/ov580/test_trc/User3\sequence.41_training_dense_right.trc
DataRate	CameraRate	NumFrames	NumMarkers	Units	OrigDataRate	OrigDataStartFrame	OrigNumFrames
120	120	20	19	mm	120	113	301
Frame#	Time	ThumbCMC			ThumbMCP			ThumbIP			ThumbTip			IndexMCP			IndexPIP			IndexTip			MiddleMCP			MiddlePIP			MiddleTip			RingMCP			RingPIP			RingTip			PinkyMCP			PinkyPIP			PinkyTip			BackHand1			BackHand2			BackHand3	
		X0	Y0	Z0	X1	Y1	Z1	X2	Y2	Z2	X3	Y3	Z3	X4	Y4	Z4	X5	Y5	Z5	X6	Y6	Z6	X7	Y7	Z7	X8	Y8	Z8	X9	Y9	Z9	X10	Y10	Z10	X11	Y11	Z11	X12	Y12	Z12	X13	Y13	Z13	X14	Y14	Z14	X15	Y15	Z15	X16	Y16	Z16	X17	Y17	Z17	X18	Y18	Z18	
112	0.933333	195.503	-70.501	35.486	172.047	-73.9458	4.42264	153.434	-84.2733	-16.7877	134.864	-98.5806	-26.006	198.586	-124.923	-18.0407	183.587	-130.048	-46.9879	166.695	-119.032	-65.1093	188.211	-142.83	-11.1298	172.36	-151.019	-41.744	151.705	-138.573	-65.2347	164.452	-144.063	-2.75891	147.139	-143.152	-29.2005	129.659	-118.275	-41.54	145.901	-140.359	9.08988	131.875	-131.428	-12.8182	118.651	-110.912	-21.4677	181.652	-127.101	49.9613	185.097	-115.934	73.6327	206.639	-107.679	47.3927	
113	0.941667	196.12	-74.3368	32.482	173.014	-74.7553	3.26928	153.868	-87.4678	-17.1169	133.683	-101.696	-26.6721	197.772	-128.905	-19.3831	187.117	-131.964	-46.6217	168.314	-122.263	-64.8653	180.411	-149.793	-12.9436	170.757	-151.706	-44.6693	147.827	-135.116	-68.1419	160.644	-144.294	-2.34706	142.914	-139.834	-29.5902	128.378	-112.781	-39.3032	144.108	-139.983	13.2967	132.59	-132.666	-12.2427	120.057	-112.888	-21.1175	177.818	-133.554	46.7208	182.21	-117.763	75.6324	206.364	-110.497	49.9596	
114	0.95	194.171	-75.3109	31.6243	171.865	-80.4926	-0.245479	151.563	-90.193	-22.5817	131.736	-104.241	-29.9606	194.158	-133.134	-22.4841	183.719	-136.802	-47.8183	166.605	-125.386	-68.8031	176.018	-150.587	-11.0985	166.21	-154.395	-46.8264	144.402	-139.574	-65.5548	157.75	-146.385	-4.1635	140.981	-140.312	-32.0662	123.614	-116.621	-39.8629	140.325	-144.782	8.68372	125.846	-141.119	-11.7947	114.016	-120.092	-25.3556	177.583	-133.536	46.8411	176.265	-123.63	73.098	203.457	-114.106	44.6669	
115	0.958333	187.311	-82.97	25.7459	168.079	-78.2321	-3.73212	149.03	-88.5905	-26.725	129.051	-103.778	-33.3626	191.589	-136.759	-26.4101	180.682	-138.887	-54.0458	159.291	-128.037	-76.1914	175.023	-152.688	-21.0866	160.812	-156.803	-47.207	138.922	-134.103	-74.5698	151.464	-151.425	-7.94152	135.957	-144.102	-37.7481	120.831	-117.97	-46.903	139.033	-150.761	4.09985	126.672	-149.735	-17.4692	110.724	-130.211	-33.3106	169.353	-139.148	38.4933	169.088	-124.446	70.4354	196.343	-119.333	41.359	
116	0.966667	179.178	-80.9783	21.888	159.531	-81.8451	-10.2289	141.235	-86.1066	-35.6925	123.034	-100.315	-44.1365	185.933	-136.897	-33.6583	176.477	-140.297	-60.1595	157.639	-129.25	-85.2645	165.315	-153.498	-26.4453	151.008	-154.457	-53.881	129.429	-126.571	-75.8751	149.664	-153.302	-18.4308	133.155	-152.573	-40.2148	116.12	-126.091	-53.239	133.508	-154.434	6.22558	119.619	-161.243	-18.8588	109.023	-150.221	-37.7077	162.836	-138.565	35.1944	165.92	-124.654	62.8579	192.181	-114.297	34.5259	
117	0.975	170.541	-78.4632	13.9959	151.949	-72.3977	-14.9663	133.279	-83.1912	-41.6923	116.747	-91.0082	-50.8957	175.548	-133.595	-38.7794	164.969	-138.907	-67.5404	150.279	-131.08	-89.0671	155.615	-148.345	-35.6398	141.614	-142.805	-63.6347	115.24	-115.526	-72.4454	141.251	-153.039	-22.4613	127.034	-151.876	-46.0724	105.283	-127.789	-58.6655	129.169	-151.74	3.65151	116.619	-167.661	-19.0586	102.005	-163.563	-41.0652	159.53	-134.66	30.4272	157.171	-124.554	58.7107	184.528	-113.255	27.9816	
118	0.983333	163.327	-70.5725	10.4842	145.381	-65.0022	-20.9026	128.098	-75.9999	-44.3298	111.451	-84.7488	-55.8755	167.556	-126.84	-38.654	161.17	-131.828	-68.348	144.329	-127.941	-90.8525	146.593	-139.171	-40.4938	126.859	-130.133	-65.7916	103.649	-99.4142	-68.8264	136.989	-144.726	-24.5397	120.716	-145.006	-52.7414	100.037	-124.006	-61.3847	122.098	-150.269	1.50902	113.047	-164.524	-16.7763	102.072	-169.067	-39.1055	149.997	-127.781	28.494	152.688	-116.135	50.2068	173.332	-107.264	27.5229	
119	0.991667	157.522	-63.0612	13.021	141.915	-56.5394	-19.4007	125.844	-64.7474	-42.8631	106.749	-75.222	-62.676	164.59	-118.005	-41.4996	156.898	-124.204	-69.1357	139.254	-121.13	-93.8661	142.154	-128.218	-43.1924	123.86	-117.377	-69.4676	101.071	-88.7312	-69.8337	128.489	-138.808	-22.657	113.448	-139.862	-53.1223	95.2198	-118.905	-63.8651	116.859	-140.896	0.322036	109.592	-158.652	-18.5556	101.229	-165.001	-39.1521	143.012	-123.547	24.8288	144.903	-110.735	49.9809	170.245	-98.7066	21.6985	
120	1	154.983	-55.3152	13.8387	141.57	-48.841	-21.4011	125.536	-54.7616	-46.6349	107.307	-64.1501	-62.3223	161.564	-110.738	-44.953	153.553	-116.422	-72.4845	139.218	-114.024	-94.0059	137.563	-122.111	-41.2354	121.987	-113.766	-68.5537	100.649	-82.4639	-72.7442	126.759	-130.884	-24.459	114.568	-132.112	-53.9341	92.7601	-107.985	-66.9858	112.994	-130.238	-0.527208	105.539	-149.027	-17.7777	98.7539	-155.222	-38.2312	138.534	-114.279	27.2296	138.651	-102.996	51.898	164.495	-94.8271	23.3653	
121	1.00833	156.594	-49.5635	10.7222	140.994	-47.5605	-19.5009	126.621	-50.2637	-45.4826	110.166	-60.7502	-61.6162	158.309	-105.441	-39.8894	150.349	-112.169	-71.6304	139.703	-108.254	-96.6445	134.528	-117.036	-44.5341	121.844	-107.047	-70.0629	100.517	-73.0551	-73.6364	126.47	-124.306	-29.3491	111.707	-124.388	-56.9266	92.4056	-104.437	-69.0559	109.524	-119.403	-2.04985	104.023	-138.433	-17.0392	93.1089	-146.872	-45.5368	133.815	-109.667	22.2248	134.031	-96.441	49.601	163.785	-84.4299	25.8826	
122	1.01667	158.428	-44.094	11.1446	144.511	-43.3362	-21.7873	133.728	-45.6606	-48.7093	118.335	-50.1943	-67.5526	155.736	-102.39	-39.7183	149.737	-108.956	-70.9301	137.14	-103.914	-92.0609	135.51	-111.506	-40.0973	124.486	-102.577	-73.8844	101.659	-71.5561	-79.9765	120.597	-120.693	-28.6233	108.105	-122.041	-55.7982	93.076	-99.9309	-73.1878	105.795	-118.045	-4.62021	97.2797	-133.627	-24.1877	86.0942	-135.675	-49.1309	131.931	-100.853	23.3063	131.674	-92.1441	47.2025	161.609	-83.6635	24.677	
123	1.025	156.557	-44.374	11.2984	151.187	-38.5946	-20.1858	143.629	-38.9	-52.0479	128.275	-46.5947	-70.2831	155.607	-97.5957	-39.5412	148.426	-101.628	-74.2314	137.07	-87.4887	-97.8817	135.517	-110.081	-41.4721	127.007	-105.372	-73.9082	111.167	-77.1187	-90.3623	118.644	-114.47	-27.3997	109.294	-120.063	-56.3679	95.2802	-98.1898	-79.268	99.6369	-107.715	-5.80054	93.2152	-123.732	-29.9091	85.4046	-121.882	-52.9474	126.05	-96.3555	23.0759	129.287	-87.6332	47.3466	159.971	-78.6435	23.3757	
124	1.03333	160.493	-35.7916	10.0585	157.349	-32.3255	-22.7851	150.072	-36.4775	-51.7766	134.193	-44.8038	-75.0148	153.825	-90.4875	-47.0746	143.796	-90.9299	-76.0142	134.601	-70.0829	-94.4398	134.699	-104.765	-43.3427	125.01	-106.505	-74.7169	114.834	-82.1795	-101.026	119.241	-107.949	-32.9474	108.525	-114.921	-58.8767	98.6592	-100.299	-83.8018	96.9278	-100.822	-15.7792	88.3514	-110.958	-35.2554	76.4923	-108.799	-63.455	121.358	-90.7762	15.0178	124.981	-76.3452	44.9241	152.384	-76.1497	20.5723	
125	1.04167	157.26	-35.3074	8.24285	154.85	-32.9065	-23.9198	153.136	-34.8964	-56.8216	137.528	-42.0184	-77.1484	146.59	-87.1056	-51.7136	137.484	-79.8676	-82.1139	128.972	-55.6194	-95.5554	132.968	-103.018	-47.7561	124.166	-106.38	-76.875	114.887	-87.0046	-108.053	112.934	-106.013	-36.0919	107.879	-112.935	-64.5913	99.5653	-101.528	-87.5248	89.6938	-97.2489	-20.254	82.2502	-105.665	-39.2655	72.7799	-104.401	-65.2718	120.102	-85.1243	14.3885	118.945	-76.3522	39.1456	148.989	-72.5607	16.1749	
126	1.05	156.815	-35.6388	5.73976	154.859	-33.5706	-29.7792	150.862	-35.3725	-59.7978	138.058	-39.8696	-79.2142	146.633	-84.6167	-56.941	139.467	-73.9303	-86.537	127.635	-49.0019	-96.5948	129.276	-99.9433	-47.6237	122.125	-104.469	-80.0929	111.583	-88.8811	-110.012	109.467	-103.988	-37.8655	106.849	-111.094	-62.3841	94.0075	-101.653	-92.2969	87.8538	-94.8915	-23.2555	79.9037	-104.736	-42.5008	69.1787	-101.909	-69.3507	114.443	-85.3555	11.3841	116.8	-73.7276	39.49	147.178	-71.8319	15.1446	
127	1.05833	155.534	-33.6993	3.76315	152.399	-32.9175	-28.6818	151.769	-31.2295	-59.8671	136.955	-36.7517	-80.0717	145.924	-81.6832	-54.3178	137.91	-70.9392	-87.2738	124.159	-47.4132	-95.717	126.292	-101.449	-54.2061	123.719	-101.098	-86.3556	112.228	-84.8627	-115.474	106.909	-100.005	-36.7648	103.489	-108.477	-66.6979	94.1261	-98.7936	-95.9361	85.5227	-94.5321	-23.2375	80.9417	-103.514	-46.9657	68.7645	-99.8085	-69.4417	115.251	-84.1941	12.1639	115.826	-73.3134	33.4529	144.544	-71.5285	16.6884	
128	1.06667	155.664	-33.6149	3.1743	154.621	-29.5504	-33.0439	147.654	-31.337	-58.8404	137.018	-32.6526	-82.796	141.989	-80.4743	-56.1619	135.653	-68.4468	-88.5568	123.176	-44.7854	-96.9751	128.701	-96.0507	-51.9594	121.409	-98.9907	-84.353	108.937	-83.6296	-113.495	108.549	-98.1007	-39.3995	101.262	-106.16	-69.6111	95.1175	-97.4347	-93.8099	85.1337	-92.4196	-23.6567	75.1554	-102.491	-47.1161	68.6745	-98.9739	-69.1655	116.457	-84.407	6.01397	116.315	-72.1599	37.4264	143.445	-70.1976	15.8956	
129	1.075	155.314	-33.2119	2.30336	154.148	-28.0193	-32.3667	148.296	-28.0867	-59.7001	132.848	-32.7581	-81.4287	140.947	-80.8173	-59.5586	134.453	-70.724	-88.2346	127.096	-39.7194	-99.4555	125.088	-94.1041	-53.3099	121.505	-96.1495	-86.7015	106.374	-76.0562	-114.202	106.636	-95.5753	-39.9705	101.567	-103.163	-72.561	93.3422	-91.9705	-95.205	88.0214	-90.3848	-26.2693	75.1016	-100.128	-46.0262	69.4587	-97.6196	-67.1748	114.165	-81.1866	6.82355	115.21	-72.9154	33.7261	146.537	-70.7077	11.399	
130	1.08333	156.829	-31.1976	1.89765	153.337	-24.8291	-31.2212	149.972	-22.6828	-59.0822	133.362	-29.1607	-79.1522	146.437	-79.8388	-61.1618	139.647	-73.5818	-87.8913	130.572	-43.7575	-103.886	124.287	-92.4365	-58.2815	121.91	-88.8651	-88.2984	108.55	-64.6612	-113.987	107.308	-92.9055	-43.4175	101.191	-99.1846	-73.4267	93.4987	-84.4564	-98.2857	86.608	-87.7442	-26.0203	78.7378	-97.0563	-47.2351	70.3342	-96.1239	-69.8757	115.516	-80.559	4.88684	117.94	-70.7362	32.8874	148.208	-67.1256	11.9843	
131	1.09167	157.793	-29.0293	4.02421	156.558	-20.3397	-30.333	148.812	-18.8632	-60.0021	134.492	-22.9825	-83.013	149.729	-78.4834	-61.0192	141.445	-74.2696	-89.7928	132.379	-50.4166	-105.776	129.674	-86.0138	-60.2724	122.665	-78.4396	-92.5981	111.524	-46.8852	-110.25	109.342	-92.3686	-48.7092	106.18	-93.6266	-73.0469	96.0749	-78.2889	-98.1441	90.0986	-81.5457	-27.7415	81.1543	-92.484	-49.8707	70.4193	-89.993	-72.9494	115.081	-78.6584	7.00048	116.534	-68.0675	31.3	148.745	-68.1583	8.9328	
